<svg xmlns:xlink="http://www.w3.org/1999/xlink" xmlns="http://www.w3.org/2000/svg" width="444" height="88" viewBox="0 0 444 88" fill="none"><g clip-path="url(#clip0_224_2978)"><path d="M44.5 88C68.8005 88 88.5 68.3005 88.5 44C88.5 19.6995 68.8005 0 44.5 0C20.1995 0 0.5 19.6995 0.5 44C0.5 68.3005 20.1995 88 44.5 88Z" fill="#66C0B8"></path><path d="M43.9375 81.4766V77.7295C43.9375 76.9011 44.6091 76.2295 45.4375 76.2295C46.2658 76.2297 46.9375 76.9012 46.9375 77.7295V81.4766C46.9375 82.3049 46.2658 82.9764 45.4375 82.9766C44.6091 82.9766 43.9375 82.305 43.9375 81.4766ZM20.252 67.4521C20.8378 66.8665 21.7873 66.8664 22.373 67.4521C22.9586 68.0379 22.9586 68.9875 22.373 69.5732L19.7227 72.2236C19.1369 72.8092 18.1873 72.8092 17.6016 72.2236C17.0158 71.6379 17.016 70.6883 17.6016 70.1025L20.252 67.4521ZM67.29 66.79C67.8392 66.2409 68.7077 66.2061 69.2969 66.6865L69.4111 66.79L72.0605 69.4395L72.1641 69.5537C72.6445 70.1429 72.6097 71.0114 72.0605 71.5605C71.5114 72.1097 70.6429 72.1445 70.0537 71.6641L69.9395 71.5605L67.29 68.9111L67.1865 68.7969C66.7061 68.2077 66.7409 67.3392 67.29 66.79ZM10.7715 42.5L10.9248 42.5078C11.681 42.5848 12.2714 43.2236 12.2715 44C12.2715 44.7765 11.681 45.4152 10.9248 45.4922L10.7715 45.5H7.02344C6.19501 45.5 5.52344 44.8284 5.52344 44C5.52356 43.1717 6.19509 42.5 7.02344 42.5H10.7715ZM81.9766 42.5L82.1309 42.5078C82.887 42.5848 83.4764 43.2236 83.4766 44C83.4766 44.7765 82.887 45.4151 82.1309 45.4922L81.9766 45.5H78.2295C77.4011 45.5 76.7295 44.8284 76.7295 44C76.7296 43.1717 77.4011 42.5 78.2295 42.5H81.9766ZM70.6016 17.1016C71.1872 16.5159 72.1368 16.5161 72.7227 17.1016C73.3084 17.6873 73.3084 18.6369 72.7227 19.2227L70.0732 21.873C69.4875 22.4588 68.5379 22.4587 67.9521 21.873C67.3664 21.2873 67.3664 20.3377 67.9521 19.752L70.6016 17.1016ZM16.9395 16.4395C17.4885 15.8904 18.3571 15.8558 18.9463 16.3359L19.0605 16.4395L21.7109 19.0889L21.8135 19.2031C22.2941 19.7923 22.2602 20.6617 21.7109 21.2109C21.1617 21.7602 20.2923 21.7941 19.7031 21.3135L19.5889 21.2109L16.9395 18.5605L16.8359 18.4463C16.3558 17.8571 16.3904 16.9885 16.9395 16.4395ZM43.9375 10.2715V6.52344C43.9375 5.69501 44.6091 5.02344 45.4375 5.02344C46.2658 5.02363 46.9375 5.69513 46.9375 6.52344V10.2715C46.9373 11.0996 46.2656 11.7713 45.4375 11.7715C44.6092 11.7715 43.9377 11.0997 43.9375 10.2715Z" fill="#F0F9F8"></path><path d="M60.4283 16.3811V53.2065L28.5366 34.7938L60.4283 16.3811Z" fill="#FF6B3B"></path><path d="M28.5366 71.6194L60.4283 53.2067L28.5366 34.7941V71.6194Z" fill="#F0F9F8"></path><path d="M44.5 50C47.8137 50 50.5 47.3137 50.5 44C50.5 40.6863 47.8137 38 44.5 38C41.1863 38 38.5 40.6863 38.5 44C38.5 47.3137 41.1863 50 44.5 50Z" fill="#66C0B8"></path><path d="M136.879 7.90076V20.0268H130.709V13.5983H124.044V34.8403H127.978V40.5378H113.401V34.8403H117.335V13.5983H110.692V20.0268H104.5V7.90076H136.879Z" fill="#1B221B"></path><path d="M149.526 41.0323C146.903 41.0323 144.617 40.5163 142.667 39.4843C140.718 38.438 139.199 36.9974 138.109 35.1628C137.034 33.3138 136.497 31.1781 136.497 28.7558C136.497 26.3048 137.034 24.1476 138.109 22.2843C139.199 20.4209 140.718 18.9661 142.667 17.9198C144.617 16.8734 146.903 16.3503 149.526 16.3503C152.134 16.3503 154.413 16.8734 156.363 17.9198C158.326 18.9661 159.846 20.4209 160.921 22.2843C161.996 24.1476 162.533 26.3048 162.533 28.7558C162.533 31.1781 161.996 33.3138 160.921 35.1628C159.846 36.9974 158.334 38.438 156.384 39.4843C154.435 40.5163 152.149 41.0323 149.526 41.0323ZM149.526 35.2488C150.758 35.2488 151.841 34.9836 152.772 34.4533C153.718 33.9086 154.456 33.1489 154.987 32.1743C155.517 31.1996 155.782 30.053 155.782 28.7343C155.782 27.4299 155.517 26.2833 154.987 25.2943C154.456 24.2909 153.718 23.5098 152.772 22.9508C151.841 22.3918 150.758 22.1123 149.526 22.1123C148.293 22.1123 147.204 22.3918 146.258 22.9508C145.326 23.5098 144.595 24.2909 144.065 25.2943C143.534 26.2833 143.269 27.4299 143.269 28.7343C143.269 30.053 143.534 31.1996 144.065 32.1743C144.595 33.1489 145.326 33.9086 146.258 34.4533C147.204 34.9836 148.293 35.2488 149.526 35.2488Z" fill="#1B221B"></path><path d="M183.842 22.2198H180.337V16.8448H190.378V35.1628H193.839V40.5378H183.842V22.2198ZM174.747 16.8448V31.3358C174.747 32.6688 175.063 33.7295 175.693 34.5178C176.324 35.3061 177.248 35.7003 178.467 35.7003C179.456 35.7003 180.359 35.428 181.176 34.8833C181.993 34.3386 182.638 33.5359 183.111 32.4753C183.598 31.4003 183.842 30.0745 183.842 28.4978L184.981 33.5933H183.605C183.261 36.1016 182.394 37.9865 181.004 39.2478C179.628 40.4948 177.822 41.1183 175.586 41.1183C173.12 41.1183 171.271 40.4088 170.039 38.9898C168.82 37.5708 168.211 35.6 168.211 33.0773V22.2413H164.986V16.8448H174.747Z" fill="#1B221B"></path><path d="M206.715 35.1627H210.112V40.5377H196.481V35.1627H200.179V22.2197H196.481V16.8447H206.715V35.1627ZM214.821 23.1872C214.577 23.1155 214.305 23.0653 214.004 23.0367C213.717 22.9937 213.402 22.9722 213.058 22.9722C211.065 22.9722 209.51 23.5527 208.392 24.7137C207.274 25.8747 206.715 27.5302 206.715 29.6802L205.576 23.8537H206.952C207.109 22.2197 207.46 20.858 208.005 19.7687C208.564 18.665 209.309 17.8408 210.241 17.2962C211.173 16.7515 212.276 16.4792 213.552 16.4792C213.796 16.4792 214.018 16.4935 214.219 16.5222C214.434 16.5365 214.634 16.5652 214.821 16.6082V23.1872Z" fill="#1B221B"></path><path d="M245.466 41.0753C242.915 41.0753 240.578 40.6668 238.457 39.8498C236.35 39.0328 234.53 37.8718 232.996 36.3668C231.462 34.8474 230.28 33.0558 229.449 30.9918C228.617 28.9134 228.202 26.6273 228.202 24.1333C228.202 21.6679 228.617 19.4104 229.449 17.3608C230.294 15.3111 231.477 13.5409 232.996 12.0503C234.53 10.5596 236.35 9.40578 238.457 8.58878C240.578 7.77178 242.915 7.36328 245.466 7.36328C248.017 7.36328 250.347 7.77178 252.454 8.58878C254.561 9.40578 256.381 10.5596 257.915 12.0503C259.448 13.5409 260.631 15.3111 261.462 17.3608C262.293 19.4104 262.709 21.6679 262.709 24.1333C262.709 26.6273 262.293 28.9134 261.462 30.9918C260.631 33.0558 259.448 34.8474 257.915 36.3668C256.381 37.8718 254.561 39.0328 252.454 39.8498C250.347 40.6668 248.017 41.0753 245.466 41.0753ZM245.445 34.6468C247.48 34.6468 249.264 34.2025 250.798 33.3138C252.346 32.4108 253.55 31.171 254.41 29.5943C255.27 28.0176 255.7 26.1973 255.7 24.1333C255.7 22.0979 255.27 20.3063 254.41 18.7583C253.55 17.1959 252.346 15.9776 250.798 15.1033C249.264 14.2289 247.487 13.7918 245.466 13.7918C243.445 13.7918 241.661 14.2289 240.113 15.1033C238.579 15.9776 237.375 17.1959 236.501 18.7583C235.641 20.3063 235.211 22.0979 235.211 24.1333C235.211 26.1973 235.641 28.0176 236.501 29.5943C237.375 31.171 238.579 32.4108 240.113 33.3138C241.646 34.2025 243.424 34.6468 245.445 34.6468Z" fill="#1B221B"></path><path d="M265.38 49.5678V44.1928H268.971V22.2198H265.38V16.8448H275.507V25.2083L275.378 28.0248V29.2288L275.507 32.4968V44.1928H278.904V49.5678H265.38ZM283.204 41.0323C281.484 41.0323 279.893 40.6596 278.431 39.9143C276.983 39.1546 275.722 38.0151 274.647 36.4958C273.572 34.9764 272.747 33.0773 272.174 30.7983L275.378 28.7343C275.378 30.0386 275.607 31.1853 276.066 32.1743C276.539 33.1633 277.227 33.9373 278.13 34.4963C279.033 35.0553 280.122 35.3348 281.398 35.3348C282.659 35.3348 283.734 35.0553 284.623 34.4963C285.526 33.9373 286.214 33.1633 286.687 32.1743C287.174 31.1709 287.418 30.01 287.418 28.6913C287.418 27.3726 287.167 26.2116 286.665 25.2083C286.178 24.2049 285.475 23.4238 284.558 22.8648C283.655 22.3058 282.602 22.0263 281.398 22.0263C280.136 22.0263 279.054 22.3058 278.151 22.8648C277.262 23.4238 276.574 24.2121 276.087 25.2298C275.614 26.2331 275.378 27.4013 275.378 28.7343L274.733 23.4668H275.722C276.008 21.9618 276.474 20.6789 277.119 19.6183C277.778 18.5576 278.631 17.7478 279.678 17.1888C280.738 16.6298 282.014 16.3503 283.505 16.3503C285.124 16.3503 286.586 16.6728 287.891 17.3178C289.209 17.9484 290.334 18.8299 291.266 19.9623C292.198 21.0946 292.914 22.4061 293.416 23.8968C293.918 25.3874 294.169 26.9856 294.169 28.6913C294.169 31.1996 293.71 33.3783 292.793 35.2273C291.89 37.0763 290.614 38.5096 288.966 39.5273C287.332 40.5306 285.411 41.0323 283.204 41.0323Z" fill="#1B221B"></path><path d="M310.52 41.0323C307.897 41.0323 305.625 40.5163 303.704 39.4843C301.798 38.438 300.329 36.9974 299.297 35.1628C298.265 33.3138 297.749 31.1781 297.749 28.7558C297.749 26.3191 298.265 24.1691 299.297 22.3058C300.329 20.4281 301.784 18.9661 303.661 17.9198C305.539 16.8734 307.753 16.3503 310.305 16.3503C312.856 16.3503 315.056 16.8734 316.905 17.9198C318.769 18.9661 320.202 20.4209 321.205 22.2843C322.209 24.1476 322.71 26.3119 322.71 28.7773C322.71 29.1786 322.71 29.5226 322.71 29.8093C322.71 30.0959 322.696 30.3468 322.667 30.5618H316.217C316.26 30.2464 316.282 29.924 316.282 29.5943C316.296 29.2646 316.303 28.8919 316.303 28.4763C316.303 27.1576 316.074 26.0038 315.615 25.0148C315.157 24.0114 314.483 23.2374 313.594 22.6928C312.72 22.1338 311.659 21.8543 310.412 21.8543C309.208 21.8543 308.155 22.1409 307.252 22.7143C306.349 23.2733 305.646 24.076 305.145 25.1223C304.657 26.1543 304.414 27.3654 304.414 28.7558C304.414 30.0315 304.665 31.1566 305.166 32.1313C305.668 33.1059 306.37 33.8728 307.273 34.4318C308.191 34.9765 309.287 35.2488 310.563 35.2488C311.867 35.2488 312.985 34.9621 313.917 34.3888C314.863 33.8011 315.565 33.0199 316.024 32.0453L322.345 33.8943C321.456 36.1016 319.973 37.8431 317.894 39.1188C315.83 40.3945 313.372 41.0323 310.52 41.0323ZM301.898 30.5618V26.5413H318.819L319.528 30.5618H301.898Z" fill="#1B221B"></path><path d="M336.261 35.1627H339.658V40.5377H326.027V35.1627H329.725V22.2197H326.027V16.8447H336.261V35.1627ZM344.366 23.1872C344.123 23.1155 343.85 23.0653 343.549 23.0367C343.263 22.9937 342.947 22.9722 342.603 22.9722C340.611 22.9722 339.056 23.5527 337.938 24.7137C336.82 25.8747 336.261 27.5302 336.261 29.6802L335.121 23.8537H336.497C336.655 22.2197 337.006 20.858 337.551 19.7687C338.11 18.665 338.855 17.8408 339.787 17.2962C340.719 16.7515 341.822 16.4792 343.098 16.4792C343.342 16.4792 343.564 16.4935 343.764 16.5222C343.979 16.5365 344.18 16.5652 344.366 16.6082V23.1872Z" fill="#1B221B"></path><path d="M365.084 40.5378C364.138 40.5378 363.407 40.2583 362.891 39.6993C362.389 39.126 362.138 38.3233 362.138 37.2913V32.1958L362.59 31.3358L362.332 28.7558L362.138 27.3153V25.4448C362.138 24.6278 361.966 23.9541 361.622 23.4238C361.278 22.8791 360.777 22.4778 360.117 22.2198C359.472 21.9618 358.691 21.8328 357.774 21.8328C356.484 21.8328 355.43 22.0979 354.613 22.6283C353.811 23.1443 353.287 23.9684 353.044 25.1008L347.024 24.1763C347.282 22.4993 347.848 21.0731 348.722 19.8978C349.597 18.7224 350.822 17.8266 352.399 17.2103C353.975 16.5939 355.946 16.2858 358.311 16.2858C360.533 16.2858 362.411 16.5796 363.944 17.1673C365.492 17.7406 366.668 18.6436 367.47 19.8763C368.273 21.1089 368.674 22.6999 368.674 24.6493V35.1413H371.512V40.5378H365.084ZM353.839 40.9678C351.36 40.9678 349.482 40.3945 348.206 39.2478C346.931 38.1011 346.293 36.4814 346.293 34.3888C346.293 32.3534 346.931 30.8055 348.206 29.7448C349.482 28.6698 351.481 27.8886 354.205 27.4013L363.342 25.6813V28.8633L356.097 30.4113C355.065 30.612 354.312 30.9559 353.839 31.4433C353.366 31.9163 353.13 32.5469 353.13 33.3353C353.13 34.1809 353.395 34.8259 353.925 35.2703C354.47 35.7146 355.244 35.9368 356.247 35.9368C357.394 35.9368 358.426 35.6501 359.343 35.0768C360.275 34.5035 361.006 33.6864 361.536 32.6258C362.067 31.5508 362.332 30.2608 362.332 28.7558L363.407 33.8083H361.945C361.629 36.2019 360.777 37.9936 359.386 39.1833C357.996 40.3729 356.147 40.9678 353.839 40.9678Z" fill="#1B221B"></path><path d="M383.313 32.8193C383.313 33.5933 383.449 34.1738 383.721 34.5608C384.008 34.9478 384.417 35.1413 384.947 35.1413C385.477 35.1413 385.879 34.9478 386.151 34.5608C386.438 34.1595 386.581 33.5789 386.581 32.8193V30.5618H392.193V32.7763C392.193 34.4676 391.927 35.9296 391.397 37.1623C390.867 38.3806 390.035 39.3194 388.903 39.9788C387.771 40.6381 386.309 40.9678 384.517 40.9678C382.725 40.9678 381.256 40.6309 380.109 39.9573C378.977 39.2836 378.139 38.3376 377.594 37.1193C377.049 35.901 376.777 34.4676 376.777 32.8193V22.2413H373.1V16.8448H376.777V10.6313H383.313V16.8448H391.956L391.913 22.2413H383.313V32.8193Z" fill="#1B221B"></path><path d="M408.408 41.0323C405.785 41.0323 403.498 40.5163 401.549 39.4843C399.6 38.438 398.08 36.9974 396.991 35.1628C395.916 33.3138 395.379 31.1781 395.379 28.7558C395.379 26.3048 395.916 24.1476 396.991 22.2843C398.08 20.4209 399.6 18.9661 401.549 17.9198C403.498 16.8734 405.785 16.3503 408.408 16.3503C411.016 16.3503 413.295 16.8734 415.245 17.9198C417.208 18.9661 418.728 20.4209 419.803 22.2843C420.878 24.1476 421.415 26.3048 421.415 28.7558C421.415 31.1781 420.878 33.3138 419.803 35.1628C418.728 36.9974 417.215 38.438 415.266 39.4843C413.317 40.5163 411.031 41.0323 408.408 41.0323ZM408.408 35.2488C409.64 35.2488 410.722 34.9836 411.654 34.4533C412.6 33.9086 413.338 33.1489 413.869 32.1743C414.399 31.1996 414.664 30.053 414.664 28.7343C414.664 27.4299 414.399 26.2833 413.869 25.2943C413.338 24.2909 412.6 23.5098 411.654 22.9508C410.722 22.3918 409.64 22.1123 408.408 22.1123C407.175 22.1123 406.086 22.3918 405.14 22.9508C404.208 23.5098 403.477 24.2909 402.947 25.2943C402.416 26.2833 402.151 27.4299 402.151 28.7343C402.151 30.053 402.416 31.1996 402.947 32.1743C403.477 33.1489 404.208 33.9086 405.14 34.4533C406.086 34.9836 407.175 35.2488 408.408 35.2488Z" fill="#1B221B"></path><path d="M435.027 35.1627H438.424V40.5377H424.793V35.1627H428.491V22.2197H424.793V16.8447H435.027V35.1627ZM443.132 23.1872C442.888 23.1155 442.616 23.0653 442.315 23.0367C442.028 22.9937 441.713 22.9722 441.369 22.9722C439.377 22.9722 437.822 23.5527 436.704 24.7137C435.586 25.8747 435.027 27.5302 435.027 29.6802L433.887 23.8537H435.263C435.421 22.2197 435.772 20.858 436.317 19.7687C436.876 18.665 437.621 17.8408 438.553 17.2962C439.484 16.7515 440.588 16.4792 441.864 16.4792C442.107 16.4792 442.329 16.4935 442.53 16.5222C442.745 16.5365 442.946 16.5652 443.132 16.6082V23.1872Z" fill="#1B221B"></path><path d="M109.206 87.5377H106.467V68.9587H109.206V87.5377ZM108.81 68.9587H113.727C115.795 68.9587 117.379 69.4647 118.479 70.4767C119.601 71.4887 120.162 73.0067 120.162 75.0307C120.162 76.8567 119.59 78.2757 118.446 79.2877C117.302 80.2997 115.729 80.8057 113.727 80.8057H108.81V78.7267H113.397C114.717 78.7267 115.751 78.4187 116.499 77.8027C117.269 77.1867 117.654 76.2517 117.654 74.9977C117.654 73.6997 117.28 72.7537 116.532 72.1597C115.784 71.5437 114.739 71.2357 113.397 71.2357H108.81V68.9587Z" fill="#1B221B"></path><path d="M125.579 87.2737V68.9587H128.318V87.2737H125.579ZM125.579 87.5377V85.1617H138.053V87.5377H125.579Z" fill="#1B221B"></path><path d="M151.178 87.9997C148.626 87.9997 146.668 87.2737 145.304 85.8217C143.962 84.3477 143.291 82.2797 143.291 79.6177V68.9587H146.162V79.5847C146.162 80.6627 146.294 81.5757 146.558 82.3237C146.844 83.0497 147.218 83.6437 147.68 84.1057C148.142 84.5457 148.67 84.8757 149.264 85.0957C149.88 85.2937 150.518 85.3927 151.178 85.3927C152.168 85.3927 153.037 85.2167 153.785 84.8647C154.555 84.4907 155.149 83.8747 155.567 83.0167C156.007 82.1587 156.227 81.0147 156.227 79.5847V68.9587H159.098V79.6177C159.098 82.3237 158.427 84.4027 157.085 85.8547C155.765 87.2847 153.796 87.9997 151.178 87.9997Z" fill="#1B221B"></path><path d="M173.121 87.9338C171.317 87.9338 169.744 87.5598 168.402 86.8118C167.082 86.0638 166.059 84.9748 165.333 83.5448C164.607 82.1148 164.255 80.3768 164.277 78.3308C164.321 76.2628 164.728 74.5028 165.498 73.0508C166.268 71.5988 167.346 70.4988 168.732 69.7508C170.14 69.0028 171.757 68.6288 173.583 68.6288C176.025 68.6288 177.95 69.1788 179.358 70.2788C180.766 71.3568 181.679 72.9408 182.097 75.0308L179.457 75.3938C179.237 74.3818 178.841 73.5678 178.269 72.9518C177.697 72.3358 177.004 71.8958 176.19 71.6318C175.398 71.3458 174.529 71.2028 173.583 71.2028C171.361 71.2028 169.7 71.8408 168.6 73.1168C167.5 74.3708 166.95 76.0538 166.95 78.1658C166.95 80.4318 167.544 82.1918 168.732 83.4458C169.942 84.6778 171.636 85.2938 173.814 85.2938C174.804 85.2938 175.717 85.1288 176.553 84.7988C177.389 84.4468 178.093 83.9298 178.665 83.2478C179.237 82.5438 179.6 81.6748 179.754 80.6408H175.167V78.5618H182.46V87.5378H180.579L179.952 83.8748H179.886C179.732 84.2928 179.479 84.7438 179.127 85.2278C178.797 85.6898 178.357 86.1298 177.807 86.5478C177.257 86.9438 176.586 87.2738 175.794 87.5378C175.024 87.8018 174.133 87.9338 173.121 87.9338Z" fill="#1B221B"></path><path d="M190.981 86.9437V69.5527H193.687V86.9437H190.981ZM188.44 87.5377V85.1617H196.195V87.5377H188.44ZM188.44 71.3347V68.9587H196.195V71.3347H188.44Z" fill="#1B221B"></path><path d="M215.908 68.9587H218.713V87.5377H213.532L205.711 70.1797H205.645V87.5377H202.84V68.9587H207.691L215.842 86.3167H215.908V68.9587Z" fill="#1B221B"></path></g><defs><clipPath id="clip0_224_2978"><rect width="443" height="88" fill="white" transform="translate(0.5)"></rect></clipPath></defs></svg>
