<svg xmlns:xlink="http://www.w3.org/1999/xlink" xmlns="http://www.w3.org/2000/svg" width="445" height="122" viewBox="0 0 445 122" fill="none"><circle cx="44" cy="44" r="44" fill="#66C0B8"></circle><path d="M43.4375 81.4766V77.7295C43.4375 76.9011 44.1091 76.2295 44.9375 76.2295C45.7658 76.2297 46.4375 76.9012 46.4375 77.7295V81.4766C46.4375 82.3049 45.7658 82.9764 44.9375 82.9766C44.1091 82.9766 43.4375 82.305 43.4375 81.4766ZM19.752 67.4521C20.3378 66.8665 21.2873 66.8664 21.873 67.4521C22.4586 68.0379 22.4586 68.9875 21.873 69.5732L19.2227 72.2236C18.6369 72.8092 17.6873 72.8092 17.1016 72.2236C16.5158 71.6379 16.516 70.6883 17.1016 70.1025L19.752 67.4521ZM66.79 66.79C67.3392 66.2409 68.2077 66.2061 68.7969 66.6865L68.9111 66.79L71.5605 69.4395L71.6641 69.5537C72.1445 70.1429 72.1097 71.0114 71.5605 71.5605C71.0114 72.1097 70.1429 72.1445 69.5537 71.6641L69.4395 71.5605L66.79 68.9111L66.6865 68.7969C66.2061 68.2077 66.2409 67.3392 66.79 66.79ZM10.2715 42.5L10.4248 42.5078C11.181 42.5848 11.7714 43.2236 11.7715 44C11.7715 44.7765 11.181 45.4152 10.4248 45.4922L10.2715 45.5H6.52344C5.69501 45.5 5.02344 44.8284 5.02344 44C5.02356 43.1717 5.69509 42.5 6.52344 42.5H10.2715ZM81.4766 42.5L81.6309 42.5078C82.387 42.5848 82.9764 43.2236 82.9766 44C82.9766 44.7765 82.387 45.4151 81.6309 45.4922L81.4766 45.5H77.7295C76.9011 45.5 76.2295 44.8284 76.2295 44C76.2296 43.1717 76.9011 42.5 77.7295 42.5H81.4766ZM70.1016 17.1016C70.6872 16.5159 71.6368 16.5161 72.2227 17.1016C72.8084 17.6873 72.8084 18.6369 72.2227 19.2227L69.5732 21.873C68.9875 22.4588 68.0379 22.4587 67.4521 21.873C66.8664 21.2873 66.8664 20.3377 67.4521 19.752L70.1016 17.1016ZM16.4395 16.4395C16.9885 15.8904 17.8571 15.8558 18.4463 16.3359L18.5605 16.4395L21.2109 19.0889L21.3135 19.2031C21.7941 19.7923 21.7602 20.6617 21.2109 21.2109C20.6617 21.7602 19.7923 21.7941 19.2031 21.3135L19.0889 21.2109L16.4395 18.5605L16.3359 18.4463C15.8558 17.8571 15.8904 16.9885 16.4395 16.4395ZM43.4375 10.2715V6.52344C43.4375 5.69501 44.1091 5.02344 44.9375 5.02344C45.7658 5.02363 46.4375 5.69513 46.4375 6.52344V10.2715C46.4373 11.0996 45.7656 11.7713 44.9375 11.7715C44.1092 11.7715 43.4377 11.0997 43.4375 10.2715Z" fill="#E0F2F1"></path><path d="M59.9283 16.3811L59.9283 53.2065L28.0366 34.7938L59.9283 16.3811Z" fill="#FF6B3B"></path><path d="M28.0367 71.6194L59.9284 53.2067L28.0367 34.7941L28.0367 71.6194Z" fill="#E0F2F1"></path><circle cx="44" cy="44" r="6" fill="#66C0B8"></circle><path d="M136.93 4.21914V16.3451H130.759V9.91664H124.094V31.1586H128.029V36.8561H113.452V31.1586H117.386V9.91664H110.743V16.3451H104.551V4.21914H136.93Z" fill="white"></path><path d="M149.576 37.3506C146.953 37.3506 144.667 36.8346 142.718 35.8026C140.769 34.7563 139.249 33.3158 138.16 31.4811C137.085 29.6321 136.547 27.4965 136.547 25.0741C136.547 22.6231 137.085 20.466 138.16 18.6026C139.249 16.7393 140.769 15.2845 142.718 14.2381C144.667 13.1918 146.953 12.6686 149.576 12.6686C152.185 12.6686 154.464 13.1918 156.413 14.2381C158.377 15.2845 159.896 16.7393 160.971 18.6026C162.046 20.466 162.584 22.6231 162.584 25.0741C162.584 27.4965 162.046 29.6321 160.971 31.4811C159.896 33.3158 158.384 34.7563 156.435 35.8026C154.486 36.8346 152.199 37.3506 149.576 37.3506ZM149.576 31.5671C150.809 31.5671 151.891 31.302 152.823 30.7716C153.769 30.227 154.507 29.4673 155.037 28.4926C155.568 27.518 155.833 26.3713 155.833 25.0526C155.833 23.7483 155.568 22.6016 155.037 21.6126C154.507 20.6093 153.769 19.8281 152.823 19.2691C151.891 18.7101 150.809 18.4306 149.576 18.4306C148.344 18.4306 147.254 18.7101 146.308 19.2691C145.377 19.8281 144.646 20.6093 144.115 21.6126C143.585 22.6016 143.32 23.7483 143.32 25.0526C143.32 26.3713 143.585 27.518 144.115 28.4926C144.646 29.4673 145.377 30.227 146.308 30.7716C147.254 31.302 148.344 31.5671 149.576 31.5671Z" fill="white"></path><path d="M183.893 18.5381H180.388V13.1631H190.428V31.4811H193.89V36.8561H183.893V18.5381ZM174.798 13.1631V27.6541C174.798 28.9871 175.113 30.0478 175.744 30.8361C176.375 31.6245 177.299 32.0186 178.518 32.0186C179.507 32.0186 180.41 31.7463 181.227 31.2016C182.044 30.657 182.688 29.8543 183.161 28.7936C183.649 27.7186 183.893 26.3928 183.893 24.8161L185.032 29.9116H183.656C183.312 32.42 182.445 34.3048 181.055 35.5661C179.679 36.8131 177.872 37.4366 175.636 37.4366C173.171 37.4366 171.322 36.7271 170.09 35.3081C168.871 33.8891 168.262 31.9183 168.262 29.3956V18.5596H165.037V13.1631H174.798Z" fill="white"></path><path d="M206.766 31.4811H210.163V36.8561H196.532V31.4811H200.23V18.5381H196.532V13.1631H206.766V31.4811ZM214.871 19.5056C214.628 19.434 214.355 19.3838 214.054 19.3551C213.768 19.3121 213.452 19.2906 213.108 19.2906C211.116 19.2906 209.561 19.8711 208.443 21.0321C207.325 22.1931 206.766 23.8486 206.766 25.9986L205.626 20.1721H207.002C207.16 18.5381 207.511 17.1765 208.056 16.0871C208.615 14.9835 209.36 14.1593 210.292 13.6146C211.223 13.07 212.327 12.7976 213.603 12.7976C213.846 12.7976 214.069 12.812 214.269 12.8406C214.484 12.855 214.685 12.8836 214.871 12.9266V19.5056Z" fill="white"></path><path d="M245.517 37.3936C242.966 37.3936 240.629 36.9851 238.508 36.1681C236.401 35.3511 234.581 34.1901 233.047 32.6851C231.513 31.1658 230.331 29.3741 229.499 27.3101C228.668 25.2318 228.252 22.9456 228.252 20.4516C228.252 17.9863 228.668 15.7288 229.499 13.6791C230.345 11.6295 231.528 9.85931 233.047 8.36864C234.581 6.87798 236.401 5.72414 238.508 4.90714C240.629 4.09014 242.966 3.68164 245.517 3.68164C248.068 3.68164 250.397 4.09014 252.504 4.90714C254.611 5.72414 256.432 6.87798 257.965 8.36864C259.499 9.85931 260.682 11.6295 261.513 13.6791C262.344 15.7288 262.76 17.9863 262.76 20.4516C262.76 22.9456 262.344 25.2318 261.513 27.3101C260.682 29.3741 259.499 31.1658 257.965 32.6851C256.432 34.1901 254.611 35.3511 252.504 36.1681C250.397 36.9851 248.068 37.3936 245.517 37.3936ZM245.495 30.9651C247.531 30.9651 249.315 30.5208 250.849 29.6321C252.397 28.7291 253.601 27.4893 254.461 25.9126C255.321 24.336 255.751 22.5156 255.751 20.4516C255.751 18.4163 255.321 16.6246 254.461 15.0766C253.601 13.5143 252.397 12.296 250.849 11.4216C249.315 10.5473 247.538 10.1101 245.517 10.1101C243.496 10.1101 241.711 10.5473 240.163 11.4216C238.63 12.296 237.426 13.5143 236.551 15.0766C235.691 16.6246 235.261 18.4163 235.261 20.4516C235.261 22.5156 235.691 24.336 236.551 25.9126C237.426 27.4893 238.63 28.7291 240.163 29.6321C241.697 30.5208 243.474 30.9651 245.495 30.9651Z" fill="white"></path><path d="M265.431 45.8861V40.5111H269.021V18.5381H265.431V13.1631H275.557V21.5266L275.428 24.3431V25.5471L275.557 28.8151V40.5111H278.954V45.8861H265.431ZM283.254 37.3506C281.534 37.3506 279.943 36.978 278.481 36.2326C277.034 35.473 275.772 34.3335 274.697 32.8141C273.622 31.2948 272.798 29.3956 272.225 27.1166L275.428 25.0526C275.428 26.357 275.658 27.5036 276.116 28.4926C276.589 29.4816 277.277 30.2556 278.18 30.8146C279.083 31.3736 280.173 31.6531 281.448 31.6531C282.71 31.6531 283.785 31.3736 284.673 30.8146C285.576 30.2556 286.264 29.4816 286.737 28.4926C287.225 27.4893 287.468 26.3283 287.468 25.0096C287.468 23.691 287.218 22.53 286.716 21.5266C286.229 20.5233 285.526 19.7421 284.609 19.1831C283.706 18.6241 282.652 18.3446 281.448 18.3446C280.187 18.3446 279.105 18.6241 278.202 19.1831C277.313 19.7421 276.625 20.5305 276.138 21.5481C275.665 22.5515 275.428 23.7196 275.428 25.0526L274.783 19.7851H275.772C276.059 18.2801 276.525 16.9973 277.17 15.9366C277.829 14.876 278.682 14.0661 279.728 13.5071C280.789 12.9481 282.065 12.6686 283.555 12.6686C285.175 12.6686 286.637 12.9911 287.941 13.6361C289.26 14.2668 290.385 15.1483 291.317 16.2806C292.249 17.413 292.965 18.7245 293.467 20.2151C293.969 21.7058 294.219 23.304 294.219 25.0096C294.219 27.518 293.761 29.6966 292.843 31.5456C291.94 33.3946 290.665 34.828 289.016 35.8456C287.382 36.849 285.462 37.3506 283.254 37.3506Z" fill="white"></path><path d="M310.57 37.3506C307.947 37.3506 305.676 36.8346 303.755 35.8026C301.849 34.7563 300.38 33.3158 299.348 31.4811C298.316 29.6321 297.799 27.4965 297.799 25.0741C297.799 22.6375 298.316 20.4875 299.348 18.6241C300.38 16.7465 301.834 15.2845 303.712 14.2381C305.59 13.1918 307.804 12.6686 310.355 12.6686C312.907 12.6686 315.107 13.1918 316.956 14.2381C318.819 15.2845 320.253 16.7393 321.256 18.6026C322.259 20.466 322.761 22.6303 322.761 25.0956C322.761 25.497 322.761 25.841 322.761 26.1276C322.761 26.4143 322.747 26.6651 322.718 26.8801H316.268C316.311 26.5648 316.333 26.2423 316.333 25.9126C316.347 25.583 316.354 25.2103 316.354 24.7946C316.354 23.476 316.125 22.3221 315.666 21.3331C315.207 20.3298 314.534 19.5558 313.645 19.0111C312.771 18.4521 311.71 18.1726 310.463 18.1726C309.259 18.1726 308.206 18.4593 307.303 19.0326C306.4 19.5916 305.697 20.3943 305.195 21.4406C304.708 22.4726 304.465 23.6838 304.465 25.0741C304.465 26.3498 304.715 27.475 305.217 28.4496C305.719 29.4243 306.421 30.1911 307.324 30.7501C308.241 31.2948 309.338 31.5671 310.613 31.5671C311.918 31.5671 313.036 31.2805 313.967 30.7071C314.913 30.1195 315.616 29.3383 316.074 28.3636L322.396 30.2126C321.507 32.42 320.023 34.1615 317.945 35.4371C315.881 36.7128 313.423 37.3506 310.57 37.3506ZM301.949 26.8801V22.8596H318.87L319.579 26.8801H301.949Z" fill="white"></path><path d="M336.312 31.4811H339.709V36.8561H326.078V31.4811H329.776V18.5381H326.078V13.1631H336.312V31.4811ZM344.417 19.5056C344.174 19.434 343.901 19.3838 343.6 19.3551C343.314 19.3121 342.998 19.2906 342.654 19.2906C340.662 19.2906 339.107 19.8711 337.989 21.0321C336.871 22.1931 336.312 23.8486 336.312 25.9986L335.172 20.1721H336.548C336.706 18.5381 337.057 17.1765 337.602 16.0871C338.161 14.9835 338.906 14.1593 339.838 13.6146C340.769 13.07 341.873 12.7976 343.149 12.7976C343.392 12.7976 343.615 12.812 343.815 12.8406C344.03 12.855 344.231 12.8836 344.417 12.9266V19.5056Z" fill="white"></path><path d="M365.134 36.8561C364.188 36.8561 363.457 36.5766 362.941 36.0176C362.44 35.4443 362.189 34.6416 362.189 33.6096V28.5141L362.64 27.6541L362.382 25.0741L362.189 23.6336V21.7631C362.189 20.9461 362.017 20.2725 361.673 19.7421C361.329 19.1975 360.827 18.7961 360.168 18.5381C359.523 18.2801 358.742 18.1511 357.824 18.1511C356.534 18.1511 355.481 18.4163 354.664 18.9466C353.861 19.4626 353.338 20.2868 353.094 21.4191L347.074 20.4946C347.332 18.8176 347.899 17.3915 348.773 16.2161C349.647 15.0408 350.873 14.145 352.449 13.5286C354.026 12.9123 355.997 12.6041 358.362 12.6041C360.584 12.6041 362.461 12.898 363.995 13.4856C365.543 14.059 366.718 14.962 367.521 16.1946C368.324 17.4273 368.725 19.0183 368.725 20.9676V31.4596H371.563V36.8561H365.134ZM353.89 37.2861C351.41 37.2861 349.533 36.7128 348.257 35.5661C346.981 34.4195 346.343 32.7998 346.343 30.7071C346.343 28.6718 346.981 27.1238 348.257 26.0631C349.533 24.9881 351.532 24.207 354.255 23.7196L363.393 21.9996V25.1816L356.147 26.7296C355.115 26.9303 354.363 27.2743 353.89 27.7616C353.417 28.2346 353.18 28.8653 353.18 29.6536C353.18 30.4993 353.446 31.1443 353.976 31.5886C354.521 32.033 355.295 32.2551 356.298 32.2551C357.445 32.2551 358.477 31.9685 359.394 31.3951C360.326 30.8218 361.057 30.0048 361.587 28.9441C362.117 27.8691 362.382 26.5791 362.382 25.0741L363.457 30.1266H361.995C361.68 32.5203 360.827 34.312 359.437 35.5016C358.047 36.6913 356.198 37.2861 353.89 37.2861Z" fill="white"></path><path d="M383.364 29.1376C383.364 29.9116 383.5 30.4921 383.772 30.8791C384.059 31.2661 384.467 31.4596 384.998 31.4596C385.528 31.4596 385.929 31.2661 386.202 30.8791C386.488 30.4778 386.632 29.8973 386.632 29.1376V26.8801H392.243V29.0946C392.243 30.786 391.978 32.248 391.448 33.4806C390.917 34.699 390.086 35.6378 388.954 36.2971C387.821 36.9565 386.359 37.2861 384.568 37.2861C382.776 37.2861 381.307 36.9493 380.16 36.2756C379.028 35.602 378.189 34.656 377.645 33.4376C377.1 32.2193 376.828 30.786 376.828 29.1376V18.5596H373.151V13.1631H376.828V6.94964H383.364V13.1631H392.007L391.964 18.5596H383.364V29.1376Z" fill="white"></path><path d="M408.458 37.3506C405.835 37.3506 403.549 36.8346 401.6 35.8026C399.65 34.7563 398.131 33.3158 397.042 31.4811C395.967 29.6321 395.429 27.4965 395.429 25.0741C395.429 22.6231 395.967 20.466 397.042 18.6026C398.131 16.7393 399.65 15.2845 401.6 14.2381C403.549 13.1918 405.835 12.6686 408.458 12.6686C411.067 12.6686 413.346 13.1918 415.295 14.2381C417.259 15.2845 418.778 16.7393 419.853 18.6026C420.928 20.466 421.466 22.6231 421.466 25.0741C421.466 27.4965 420.928 29.6321 419.853 31.4811C418.778 33.3158 417.266 34.7563 415.317 35.8026C413.368 36.8346 411.081 37.3506 408.458 37.3506ZM408.458 31.5671C409.691 31.5671 410.773 31.302 411.705 30.7716C412.651 30.227 413.389 29.4673 413.919 28.4926C414.45 27.518 414.715 26.3713 414.715 25.0526C414.715 23.7483 414.45 22.6016 413.919 21.6126C413.389 20.6093 412.651 19.8281 411.705 19.2691C410.773 18.7101 409.691 18.4306 408.458 18.4306C407.226 18.4306 406.136 18.7101 405.19 19.2691C404.259 19.8281 403.528 20.6093 402.997 21.6126C402.467 22.6016 402.202 23.7483 402.202 25.0526C402.202 26.3713 402.467 27.518 402.997 28.4926C403.528 29.4673 404.259 30.227 405.19 30.7716C406.136 31.302 407.226 31.5671 408.458 31.5671Z" fill="white"></path><path d="M435.077 31.4811H438.474V36.8561H424.843V31.4811H428.541V18.5381H424.843V13.1631H435.077V31.4811ZM443.183 19.5056C442.939 19.434 442.667 19.3838 442.366 19.3551C442.079 19.3121 441.764 19.2906 441.42 19.2906C439.427 19.2906 437.872 19.8711 436.754 21.0321C435.636 22.1931 435.077 23.8486 435.077 25.9986L433.938 20.1721H435.314C435.472 18.5381 435.823 17.1765 436.367 16.0871C436.926 14.9835 437.672 14.1593 438.603 13.6146C439.535 13.07 440.639 12.7976 441.914 12.7976C442.158 12.7976 442.38 12.812 442.581 12.8406C442.796 12.855 442.996 12.8836 443.183 12.9266V19.5056Z" fill="white"></path><path d="M115.748 65.2773H118.652L117.2 68.8413L113.339 83.8563H108.884L104 65.2773H106.937L111.128 82.6353L115.748 65.2773ZM127.463 65.2773H130.4L125.417 83.8563H120.995L117.2 68.8413L115.715 65.2773H118.652L123.206 82.6353L127.463 65.2773Z" fill="#66C0B8"></path><path d="M136.5 83.8563V65.2773H149.37V67.6533H139.206V73.2963H147.126V75.5733H139.206V81.6123H149.7V83.8563H136.5Z" fill="#66C0B8"></path><path d="M156.077 83.8563V65.2773H163.106C163.7 65.2773 164.327 65.3103 164.987 65.3763C165.647 65.4203 166.285 65.5303 166.901 65.7063C167.539 65.8823 168.111 66.1573 168.617 66.5313C169.123 66.8833 169.519 67.3563 169.805 67.9503C170.113 68.5443 170.267 69.2923 170.267 70.1943C170.267 70.8983 170.124 71.5583 169.838 72.1743C169.574 72.7683 169.079 73.2523 168.353 73.6263C167.649 74.0003 166.615 74.2093 165.251 74.2533V74.3853C166.813 74.4073 168.012 74.6273 168.848 75.0453C169.706 75.4633 170.3 76.0133 170.63 76.6953C170.96 77.3553 171.125 78.0923 171.125 78.9063C171.125 79.8303 170.96 80.6003 170.63 81.2163C170.3 81.8103 169.86 82.2833 169.31 82.6353C168.76 82.9873 168.144 83.2513 167.462 83.4273C166.78 83.6033 166.076 83.7243 165.35 83.7903C164.646 83.8343 163.986 83.8563 163.37 83.8563H156.077ZM158.783 81.6123H163.139C164.085 81.6123 164.943 81.5573 165.713 81.4473C166.483 81.3153 167.099 81.0293 167.561 80.5893C168.045 80.1493 168.287 79.4783 168.287 78.5763C168.287 77.6083 168.034 76.9043 167.528 76.4643C167.044 76.0023 166.395 75.7053 165.581 75.5733C164.767 75.4193 163.865 75.3423 162.875 75.3423H158.783V81.6123ZM158.783 73.1973H162.776C163.678 73.1973 164.481 73.1423 165.185 73.0323C165.911 72.9223 166.483 72.6803 166.901 72.3063C167.319 71.9103 167.528 71.2943 167.528 70.4583C167.528 69.5343 167.308 68.8743 166.868 68.4783C166.428 68.0603 165.845 67.8073 165.119 67.7193C164.415 67.6093 163.645 67.5543 162.809 67.5543H158.783V73.1973Z" fill="#66C0B8"></path><path d="M184.583 84.2523C183.571 84.2523 182.592 84.1313 181.646 83.8893C180.7 83.6473 179.842 83.2733 179.072 82.7673C178.302 82.2613 177.686 81.6123 177.224 80.8203C176.762 80.0063 176.52 79.0383 176.498 77.9163H179.27C179.27 77.9823 179.292 78.1583 179.336 78.4443C179.38 78.7303 179.49 79.0603 179.666 79.4343C179.864 79.8083 180.15 80.1713 180.524 80.5233C180.92 80.8753 181.459 81.1723 182.141 81.4143C182.845 81.6343 183.725 81.7443 184.781 81.7443C185.595 81.7443 186.277 81.6563 186.827 81.4803C187.377 81.3043 187.817 81.0733 188.147 80.7873C188.477 80.5013 188.708 80.2043 188.84 79.8963C188.994 79.5883 189.071 79.3133 189.071 79.0713C189.071 78.3893 188.851 77.8393 188.411 77.4213C187.993 77.0033 187.421 76.6733 186.695 76.4313C185.969 76.1673 185.166 75.9363 184.286 75.7383C183.428 75.5183 182.57 75.2873 181.712 75.0453C180.854 74.7813 180.062 74.4403 179.336 74.0223C178.632 73.6043 178.082 73.0653 177.686 72.4053C177.29 71.7233 177.114 70.8543 177.158 69.7983C177.224 68.7863 177.576 67.9173 178.214 67.1913C178.852 66.4653 179.721 65.9153 180.821 65.5413C181.943 65.1453 183.219 64.9473 184.649 64.9473C185.947 64.9473 187.135 65.1783 188.213 65.6403C189.313 66.1023 190.193 66.7953 190.853 67.7193C191.535 68.6213 191.865 69.7763 191.843 71.1843H189.17C189.192 70.4143 189.038 69.7983 188.708 69.3363C188.378 68.8523 187.949 68.4783 187.421 68.2143C186.915 67.9503 186.387 67.7743 185.837 67.6863C185.287 67.5763 184.792 67.5213 184.352 67.5213C183.12 67.5213 182.097 67.7523 181.283 68.2143C180.491 68.6543 180.084 69.2813 180.062 70.0953C180.04 70.7993 180.249 71.3603 180.689 71.7783C181.129 72.1963 181.712 72.5263 182.438 72.7683C183.164 73.0103 183.967 73.2303 184.847 73.4283C185.727 73.6263 186.596 73.8463 187.454 74.0883C188.312 74.3303 189.093 74.6603 189.797 75.0783C190.523 75.4743 191.084 76.0133 191.48 76.6953C191.898 77.3773 192.085 78.2573 192.041 79.3353C191.997 80.3693 191.645 81.2493 190.985 81.9753C190.325 82.7013 189.445 83.2623 188.345 83.6583C187.245 84.0543 185.991 84.2523 184.583 84.2523Z" fill="#66C0B8"></path><path d="M201.183 83.2623V65.8713H203.889V83.2623H201.183ZM198.642 83.8563V81.4803H206.397V83.8563H198.642ZM198.642 67.6533V65.2773H206.397V67.6533H198.642Z" fill="#66C0B8"></path><path d="M220.698 65.8713V83.8563H217.959V65.8713H220.698ZM212.217 67.6533V65.2773H226.407V67.6533H212.217Z" fill="#66C0B8"></path><path d="M232.406 83.8563V65.2773H245.276V67.6533H235.112V73.2963H243.032V75.5733H235.112V81.6123H245.606V83.8563H232.406Z" fill="#66C0B8"></path><path d="M269.887 84.2523C268.875 84.2523 267.896 84.1313 266.95 83.8893C266.004 83.6473 265.146 83.2733 264.376 82.7673C263.606 82.2613 262.99 81.6123 262.528 80.8203C262.066 80.0063 261.824 79.0383 261.802 77.9163H264.574C264.574 77.9823 264.596 78.1583 264.64 78.4443C264.684 78.7303 264.794 79.0603 264.97 79.4343C265.168 79.8083 265.454 80.1713 265.828 80.5233C266.224 80.8753 266.763 81.1723 267.445 81.4143C268.149 81.6343 269.029 81.7443 270.085 81.7443C270.899 81.7443 271.581 81.6563 272.131 81.4803C272.681 81.3043 273.121 81.0733 273.451 80.7873C273.781 80.5013 274.012 80.2043 274.144 79.8963C274.298 79.5883 274.375 79.3133 274.375 79.0713C274.375 78.3893 274.155 77.8393 273.715 77.4213C273.297 77.0033 272.725 76.6733 271.999 76.4313C271.273 76.1673 270.47 75.9363 269.59 75.7383C268.732 75.5183 267.874 75.2873 267.016 75.0453C266.158 74.7813 265.366 74.4403 264.64 74.0223C263.936 73.6043 263.386 73.0653 262.99 72.4053C262.594 71.7233 262.418 70.8543 262.462 69.7983C262.528 68.7863 262.88 67.9173 263.518 67.1913C264.156 66.4653 265.025 65.9153 266.125 65.5413C267.247 65.1453 268.523 64.9473 269.953 64.9473C271.251 64.9473 272.439 65.1783 273.517 65.6403C274.617 66.1023 275.497 66.7953 276.157 67.7193C276.839 68.6213 277.169 69.7763 277.147 71.1843H274.474C274.496 70.4143 274.342 69.7983 274.012 69.3363C273.682 68.8523 273.253 68.4783 272.725 68.2143C272.219 67.9503 271.691 67.7743 271.141 67.6863C270.591 67.5763 270.096 67.5213 269.656 67.5213C268.424 67.5213 267.401 67.7523 266.587 68.2143C265.795 68.6543 265.388 69.2813 265.366 70.0953C265.344 70.7993 265.553 71.3603 265.993 71.7783C266.433 72.1963 267.016 72.5263 267.742 72.7683C268.468 73.0103 269.271 73.2303 270.151 73.4283C271.031 73.6263 271.9 73.8463 272.758 74.0883C273.616 74.3303 274.397 74.6603 275.101 75.0783C275.827 75.4743 276.388 76.0133 276.784 76.6953C277.202 77.3773 277.389 78.2573 277.345 79.3353C277.301 80.3693 276.949 81.2493 276.289 81.9753C275.629 82.7013 274.749 83.2623 273.649 83.6583C272.549 84.0543 271.295 84.2523 269.887 84.2523Z" fill="#66C0B8"></path><path d="M291.8 84.3183C288.83 84.3183 286.564 83.4493 285.002 81.7113C283.44 79.9513 282.659 77.5863 282.659 74.6163C282.659 72.6583 282.989 70.9643 283.649 69.5343C284.331 68.0823 285.343 66.9603 286.685 66.1683C288.049 65.3543 289.754 64.9473 291.8 64.9473C294.77 64.9473 297.025 65.8273 298.565 67.5873C300.127 69.3253 300.908 71.6683 300.908 74.6163C300.908 76.5303 300.556 78.2243 299.852 79.6983C299.17 81.1503 298.158 82.2833 296.816 83.0973C295.474 83.9113 293.802 84.3183 291.8 84.3183ZM291.767 81.6783C293.197 81.6783 294.385 81.3813 295.331 80.7873C296.299 80.1713 297.014 79.3353 297.476 78.2793C297.96 77.2013 298.202 75.9803 298.202 74.6163C298.202 73.2303 297.971 72.0093 297.509 70.9533C297.047 69.8753 296.332 69.0393 295.364 68.4453C294.418 67.8293 293.219 67.5213 291.767 67.5213C289.655 67.5213 288.049 68.1593 286.949 69.4353C285.871 70.7113 285.332 72.4383 285.332 74.6163C285.332 75.9583 285.563 77.1683 286.025 78.2463C286.487 79.3023 287.191 80.1383 288.137 80.7543C289.105 81.3703 290.315 81.6783 291.767 81.6783Z" fill="#66C0B8"></path><path d="M307.521 83.5923V65.2773H310.26V83.5923H307.521ZM307.521 83.8563V81.4803H319.995V83.8563H307.521Z" fill="#66C0B8"></path><path d="M333.781 84.3183C331.229 84.3183 329.271 83.5923 327.907 82.1403C326.565 80.6663 325.894 78.5983 325.894 75.9363V65.2773H328.765V75.9033C328.765 76.9813 328.897 77.8943 329.161 78.6423C329.447 79.3683 329.821 79.9623 330.283 80.4243C330.745 80.8643 331.273 81.1943 331.867 81.4143C332.483 81.6123 333.121 81.7113 333.781 81.7113C334.771 81.7113 335.64 81.5353 336.388 81.1833C337.158 80.8093 337.752 80.1933 338.17 79.3353C338.61 78.4773 338.83 77.3333 338.83 75.9033V65.2773H341.701V75.9363C341.701 78.6423 341.03 80.7213 339.688 82.1733C338.368 83.6033 336.399 84.3183 333.781 84.3183Z" fill="#66C0B8"></path><path d="M355.592 65.8713V83.8563H352.853V65.8713H355.592ZM347.111 67.6533V65.2773H361.301V67.6533H347.111Z" fill="#66C0B8"></path><path d="M369.651 83.2623V65.8713H372.357V83.2623H369.651ZM367.11 83.8563V81.4803H374.865V83.8563H367.11ZM367.11 67.6533V65.2773H374.865V67.6533H367.11Z" fill="#66C0B8"></path><path d="M390.155 84.3183C387.185 84.3183 384.919 83.4493 383.357 81.7113C381.795 79.9513 381.014 77.5863 381.014 74.6163C381.014 72.6583 381.344 70.9643 382.004 69.5343C382.686 68.0823 383.698 66.9603 385.04 66.1683C386.404 65.3543 388.109 64.9473 390.155 64.9473C393.125 64.9473 395.38 65.8273 396.92 67.5873C398.482 69.3253 399.263 71.6683 399.263 74.6163C399.263 76.5303 398.911 78.2243 398.207 79.6983C397.525 81.1503 396.513 82.2833 395.171 83.0973C393.829 83.9113 392.157 84.3183 390.155 84.3183ZM390.122 81.6783C391.552 81.6783 392.74 81.3813 393.686 80.7873C394.654 80.1713 395.369 79.3353 395.831 78.2793C396.315 77.2013 396.557 75.9803 396.557 74.6163C396.557 73.2303 396.326 72.0093 395.864 70.9533C395.402 69.8753 394.687 69.0393 393.719 68.4453C392.773 67.8293 391.574 67.5213 390.122 67.5213C388.01 67.5213 386.404 68.1593 385.304 69.4353C384.226 70.7113 383.687 72.4383 383.687 74.6163C383.687 75.9583 383.918 77.1683 384.38 78.2463C384.842 79.3023 385.546 80.1383 386.492 80.7543C387.46 81.3703 388.67 81.6783 390.122 81.6783Z" fill="#66C0B8"></path><path d="M418.615 65.2773H421.42V83.8563H416.239L408.418 66.4983H408.352V83.8563H405.547V65.2773H410.398L418.549 82.6353H418.615V65.2773Z" fill="#66C0B8"></path><path d="M435.634 84.2523C434.622 84.2523 433.643 84.1313 432.697 83.8893C431.751 83.6473 430.893 83.2733 430.123 82.7673C429.353 82.2613 428.737 81.6123 428.275 80.8203C427.813 80.0063 427.571 79.0383 427.549 77.9163H430.321C430.321 77.9823 430.343 78.1583 430.387 78.4443C430.431 78.7303 430.541 79.0603 430.717 79.4343C430.915 79.8083 431.201 80.1713 431.575 80.5233C431.971 80.8753 432.51 81.1723 433.192 81.4143C433.896 81.6343 434.776 81.7443 435.832 81.7443C436.646 81.7443 437.328 81.6563 437.878 81.4803C438.428 81.3043 438.868 81.0733 439.198 80.7873C439.528 80.5013 439.759 80.2043 439.891 79.8963C440.045 79.5883 440.122 79.3133 440.122 79.0713C440.122 78.3893 439.902 77.8393 439.462 77.4213C439.044 77.0033 438.472 76.6733 437.746 76.4313C437.02 76.1673 436.217 75.9363 435.337 75.7383C434.479 75.5183 433.621 75.2873 432.763 75.0453C431.905 74.7813 431.113 74.4403 430.387 74.0223C429.683 73.6043 429.133 73.0653 428.737 72.4053C428.341 71.7233 428.165 70.8543 428.209 69.7983C428.275 68.7863 428.627 67.9173 429.265 67.1913C429.903 66.4653 430.772 65.9153 431.872 65.5413C432.994 65.1453 434.27 64.9473 435.7 64.9473C436.998 64.9473 438.186 65.1783 439.264 65.6403C440.364 66.1023 441.244 66.7953 441.904 67.7193C442.586 68.6213 442.916 69.7763 442.894 71.1843H440.221C440.243 70.4143 440.089 69.7983 439.759 69.3363C439.429 68.8523 439 68.4783 438.472 68.2143C437.966 67.9503 437.438 67.7743 436.888 67.6863C436.338 67.5763 435.843 67.5213 435.403 67.5213C434.171 67.5213 433.148 67.7523 432.334 68.2143C431.542 68.6543 431.135 69.2813 431.113 70.0953C431.091 70.7993 431.3 71.3603 431.74 71.7783C432.18 72.1963 432.763 72.5263 433.489 72.7683C434.215 73.0103 435.018 73.2303 435.898 73.4283C436.778 73.6263 437.647 73.8463 438.505 74.0883C439.363 74.3303 440.144 74.6603 440.848 75.0783C441.574 75.4743 442.135 76.0133 442.531 76.6953C442.949 77.3773 443.136 78.2573 443.092 79.3353C443.048 80.3693 442.696 81.2493 442.036 81.9753C441.376 82.7013 440.496 83.2623 439.396 83.6583C438.296 84.0543 437.042 84.2523 435.634 84.2523Z" fill="#66C0B8"></path><path d="M49 75.875C54.733 93.8377 91.5927 126.628 193.168 114.086C294.743 101.545 392.979 104.289 438 114.086" stroke="#66C0B8" stroke-width="2" stroke-dasharray="4 6"></path><path d="M443 108.818L430.353 118.803" stroke="#66C0B8" stroke-width="3" stroke-linecap="round"></path><path d="M442.315 120.128L432.216 107.625" stroke="#66C0B8" stroke-width="3" stroke-linecap="round"></path></svg>
